<svg width="785" height="766" viewBox="0 0 785 766" fill="none" xmlns="http://www.w3.org/2000/svg">
<path d="M530.546 711.014L525.171 711.155H523.757L524.606 720.142C525.03 724.917 521.777 729.552 518.807 733.343L513.149 740.646C510.744 743.735 509.754 747.808 510.744 751.74L511.452 754.408C511.735 755.391 512.866 755.672 513.573 755.11L559.259 716.21C560.107 715.508 560.107 714.104 559.259 713.261C553.46 707.925 543.559 703.29 543.559 703.29L542.144 704.414L535.921 709.189C534.224 710.312 532.526 710.874 530.546 711.014ZM521.353 709.891L522.767 708.767L536.628 696.971L538.326 695.567C536.77 692.196 534.931 688.826 533.092 685.596C532.951 685.315 532.809 685.034 532.526 684.753C528.849 678.434 524.747 672.255 520.221 666.497L512.866 684.051L507.633 696.69C512.725 701.324 517.392 705.818 521.353 709.891ZM495.044 641.5C497.59 648.662 499.429 656.105 500.702 663.829L503.531 648.381C500.702 645.853 497.732 643.325 494.762 640.938C494.903 641.078 494.903 641.359 495.044 641.5ZM495.752 737.697L493.913 737.556L485.992 737.135C484.153 736.995 482.315 736.292 480.9 735.169L476.657 731.798L475.526 730.956L470.151 738.258C467.322 742.05 461.806 743.595 457.138 744.578L448.086 746.404C444.126 747.246 440.872 749.774 439.034 753.285L437.761 755.813C437.761 755.953 437.761 755.953 437.619 756.094H500.985C500.985 755.953 500.985 755.672 500.985 755.532C500.419 747.667 495.752 737.697 495.752 737.697ZM389.954 363.722C390.236 363.02 391.368 363.301 391.368 364.003C391.085 367.093 390.802 370.042 391.085 373.132V373.272C391.227 373.131 391.368 372.991 391.651 372.991C391.085 369.059 391.934 364.706 393.49 361.195C393.773 360.493 394.904 360.773 394.904 361.476C394.621 364.565 394.338 367.514 394.621 370.604C394.621 371.025 394.763 371.306 394.763 371.727C394.621 368.216 395.328 364.565 396.743 361.476C397.026 360.773 398.157 361.054 398.157 361.756C397.874 364.846 397.591 367.795 397.874 370.885C397.874 371.025 397.874 371.165 397.874 371.306C398.016 371.306 398.157 371.306 398.44 371.306C398.44 368.076 399.289 364.846 400.42 362.178C400.703 361.476 401.835 361.756 401.835 362.459C401.552 365.548 401.269 368.497 401.552 371.587C402.966 373.693 404.239 375.659 405.088 377.766H417.535L408.058 319.486H369.869H368.172L377.648 377.766H379.346H388.964C387.408 373.132 388.256 367.795 389.954 363.722ZM689.385 529.574V531.119V533.647V678.574V757.076H693.062H693.204V756.094V661.16V529.574H689.385ZM753.033 756.094H729.837H716.966H712.298H704.943H700.276H693.628H689.102H680.757H676.514H666.33H661.945H660.389H655.863H652.186H648.084C647.943 750.617 644.831 745.842 640.446 743.174C638.183 741.91 635.637 741.208 632.808 741.208H632.243H611.592V636.585V635.18V610.604H636.91H638.324H642.426C650.63 610.604 657.136 604.004 657.136 595.999C657.136 593.752 656.57 591.646 655.722 589.68C655.58 589.399 655.439 588.978 655.156 588.697C652.61 584.343 647.801 581.254 642.285 581.254H625.878C621.776 585.607 616.967 589.399 611.451 592.067V549.516V532.945C611.451 531.681 611.309 530.557 611.168 529.574H607.915C607.773 530.557 607.632 531.681 607.632 532.945V550.078V593.752C604.944 594.876 601.974 595.719 599.004 596.28C585.567 598.948 571.423 599.651 559.259 599.51C561.239 603.021 563.078 606.672 564.634 610.464H587.123V653.858V655.122V716.351C588.679 717.755 589.386 719.721 589.527 721.547L592.215 748.089L589.669 748.65L587.123 740.927H577.929L569.16 753.425L553.318 757.076L559.259 750.336L562.371 740.927H551.197C542.852 740.927 536.062 747.527 535.921 755.813H500.985H437.619H405.512C405.371 756.234 404.946 756.515 404.381 756.374L386.842 755.813H346.248V726.743C347.238 728.007 348.228 729.271 349.36 730.535L351.199 729.692L366.616 722.951L368.172 722.249C366.05 716.491 363.928 710.453 361.807 704.414C361.665 704.133 361.524 703.712 361.524 703.431C355.866 687.141 350.491 670.289 346.39 653.858V605.549V604.145V532.523C346.39 531.26 346.248 530.136 346.107 529.153H363.08H440.165H445.257L449.5 612.711V613.975L450.066 623.946C450.773 637.849 457.138 651.049 467.746 660.177C467.888 660.318 468.029 660.458 468.171 660.599C466.898 652.313 465.342 643.887 463.503 635.602C456.148 603.161 454.168 564.964 453.178 529.153H509.471H561.663H604.944V522.412H563.219H557.279H512.017L498.015 462.447H448.652H408.2H405.512L419.515 522.412H383.73L397.733 462.447H395.045H305.089L291.086 522.412H245.825H198.442V529.153H256.857H342.712C342.571 530.136 342.429 531.26 342.429 532.523V638.41C342.005 637.849 341.581 637.427 341.298 636.865C331.397 623.524 319.374 610.183 306.645 597.263C304.24 604.847 300.28 617.907 295.612 633.074C304.099 638.691 311.737 644.589 317.677 651.049C317.96 652.875 318.243 654.56 318.384 656.386C319.374 669.586 322.769 682.928 328.144 695.426C328.285 695.848 328.568 696.269 328.71 696.69C332.528 705.397 337.196 713.683 342.429 721.406V755.672H299.573C299.856 756.655 299.007 757.498 298.158 757.357L288.399 755.672H281.044C281.044 755.251 281.044 754.83 280.902 754.408L241.582 747.668C240.45 747.527 239.743 746.263 240.167 745.14C240.592 743.735 241.016 742.191 241.723 740.786H229.701V733.624V721.687V711.576V701.465V689.949V681.945V673.238V646.696V645.292V610.324H254.594C258.979 612.57 263.505 614.958 267.89 617.345C269.163 616.081 270.436 615.098 271.85 614.256C252.614 608.919 232.105 606.391 211.879 602.6C205.656 601.476 199.998 598.948 195.189 595.578V554.712V532.945C195.189 531.681 195.048 530.557 194.906 529.574H191.653C191.511 530.557 191.37 531.681 191.37 532.945V553.729V593.05C187.551 589.68 184.439 585.748 182.035 581.254H174.539C172.417 581.254 170.437 581.675 168.739 582.518C168.457 582.658 168.032 582.799 167.749 582.939C163.082 585.326 159.829 590.242 159.829 595.859C159.829 604.004 166.476 610.464 174.539 610.464H190.097H191.37V611.868V660.88V668.603V691.213V741.067H185.288H184.157C183.025 741.067 182.035 741.208 180.903 741.348C175.529 742.471 171.285 746.263 169.588 751.319C169.164 752.723 168.881 754.268 168.739 755.813H166.052H164.496H159.97H156.293H151.342H143.139H115.558C112.729 755.813 110.466 758.06 110.466 760.868C110.466 763.677 112.729 765.924 115.558 765.924H753.033C755.862 765.924 758.125 763.677 758.125 760.868C758.125 758.06 755.721 756.094 753.033 756.094ZM195.472 671.412V615.941V614.396V610.604H220.507V637.989V639.393V667.761V675.906V687.422V721.828V732.36V741.067H216.547H211.738H201.978H197.452H195.33L195.472 671.412ZM596.741 648.521V647.258V610.745H607.773V638.551V639.955V741.348H596.741V648.521ZM626.019 484.214C625.736 491.657 629.131 499.943 632.95 511.458H645.538C654.166 511.458 661.097 504.577 661.097 496.011V463.711C661.097 455.145 654.166 448.263 645.538 448.263H636.061C633.657 457.111 631.252 463.29 628.989 470.873C628.141 475.227 627.009 479.58 626.019 484.214ZM605.369 550.499C588.396 552.465 570.574 551.061 557.279 545.443L518.241 569.036L605.369 550.499ZM405.795 754.97L404.663 752.583C403.108 749.212 400.137 746.825 396.601 745.982L388.256 744.016C384.013 743.033 378.921 741.488 376.375 737.837L371.708 730.815L369.869 732.22L366.616 734.607C365.201 735.59 363.646 736.152 361.807 736.152L354.735 736.292H352.896C352.896 736.292 348.37 745.28 347.38 752.442C347.238 753.566 348.087 754.549 349.077 754.549L386.983 755.953L404.522 756.515C404.946 756.515 405.371 756.234 405.654 755.953C405.795 755.813 405.936 755.391 405.795 754.97ZM256.574 550.499C249.361 553.167 242.006 554.993 234.368 556.116C253.038 563.7 271.992 571.985 289.106 580.552C278.215 570.16 267.183 560.048 256.574 550.499ZM170.861 508.369C167.325 492.64 165.628 475.367 164.638 458.375C164.496 455.566 164.355 452.898 164.213 450.089C159.404 452.757 156.151 457.813 156.151 463.571V495.87C156.151 504.437 163.082 511.318 171.71 511.318H181.611C181.611 510.616 181.611 510.054 181.469 509.352C175.67 509.352 171.71 508.931 170.861 508.369ZM299.007 753.285C298.017 749.353 295.329 746.263 291.793 744.859L283.59 741.629C279.347 739.944 274.396 737.556 272.416 733.203L268.738 724.917L267.465 725.619L262.939 728.288C261.383 729.271 259.545 729.552 257.847 729.411L250.351 728.569L248.654 728.428C248.654 728.428 244.693 734.607 242.006 741.208C241.44 742.612 240.875 744.157 240.45 745.561C240.167 746.684 240.733 747.948 241.865 748.089L281.185 754.83L288.682 756.094L298.441 757.779C299.29 757.919 300.138 757.077 299.856 756.094L299.007 753.285Z" fill="#424242"/>
<path d="M562.229 268.649C561.946 268.93 561.946 269.351 562.229 269.632C563.502 270.896 564.634 272.16 565.765 273.424C565.907 273.564 566.048 273.564 566.189 273.564C566.331 273.564 566.472 273.564 566.614 273.424C566.897 273.143 566.897 272.722 566.614 272.441C565.482 271.177 564.209 269.913 563.078 268.649C562.936 268.509 562.512 268.509 562.229 268.649ZM249.927 286.765C248.795 288.169 247.805 289.574 246.815 290.978C246.674 291.259 246.674 291.68 246.957 291.821C247.098 291.961 247.239 291.961 247.381 291.961C247.522 291.961 247.805 291.821 247.947 291.68C248.937 290.276 250.068 288.871 251.058 287.467C251.341 287.186 251.2 286.765 250.917 286.625C250.634 286.484 250.21 286.484 249.927 286.765ZM444.55 614.537C444.55 614.817 444.833 615.098 445.257 615.098C445.257 615.098 445.257 615.098 445.399 615.098C446.813 614.958 448.227 614.677 449.642 614.396V613.132C448.227 613.413 446.672 613.554 445.257 613.834C444.691 613.834 444.409 614.115 444.55 614.537ZM500.136 598.808C500.278 598.808 500.278 598.808 500.419 598.808C501.975 598.106 503.531 597.404 505.228 596.561C505.511 596.421 505.653 595.999 505.511 595.718C505.37 595.438 504.945 595.297 504.662 595.438C503.107 596.14 501.551 596.982 499.995 597.685C499.712 597.825 499.571 598.246 499.712 598.527C499.712 598.668 499.995 598.808 500.136 598.808ZM551.904 258.819C551.621 259.1 551.621 259.521 551.904 259.802C553.177 260.925 554.45 262.189 555.723 263.313C555.864 263.453 556.006 263.453 556.147 263.453C556.289 263.453 556.43 263.453 556.571 263.313C556.854 263.032 556.854 262.61 556.571 262.33C555.298 261.066 554.025 259.942 552.753 258.819C552.47 258.538 552.187 258.538 551.904 258.819ZM350.774 607.374C351.057 607.374 351.34 607.234 351.34 606.953C351.482 606.672 351.199 606.251 350.916 606.111C349.36 605.689 347.946 605.127 346.39 604.566V605.97C347.804 606.391 349.077 606.953 350.492 607.374C350.633 607.374 350.633 607.374 350.774 607.374ZM540.871 249.691C540.589 249.971 540.73 250.393 541.013 250.533C542.427 251.657 543.7 252.64 545.115 253.763C545.256 253.904 545.398 253.904 545.539 253.904C545.68 253.904 545.963 253.763 546.105 253.623C546.388 253.342 546.246 252.921 545.963 252.78C544.549 251.657 543.276 250.533 541.862 249.55C541.437 249.269 541.013 249.41 540.871 249.691ZM328.144 224.693C326.588 225.396 325.032 226.098 323.476 226.94C323.193 227.081 323.052 227.502 323.193 227.783C323.335 228.064 323.476 228.204 323.759 228.204C323.901 228.204 323.901 228.204 324.042 228.204C325.598 227.502 327.154 226.659 328.71 225.957C328.992 225.817 329.134 225.396 328.992 225.115C328.851 224.693 328.427 224.553 328.144 224.693ZM393.065 614.958C391.368 614.817 389.529 614.537 387.832 614.396C387.549 614.396 387.125 614.537 387.125 614.958C387.125 615.379 387.266 615.66 387.691 615.66C389.388 615.941 391.227 616.081 392.924 616.222C393.207 616.222 393.49 615.941 393.631 615.66C393.631 615.239 393.348 614.958 393.065 614.958ZM378.78 612.992C377.082 612.711 375.385 612.43 373.688 612.009C373.264 611.868 372.981 612.149 372.981 612.57C372.981 612.992 373.122 613.273 373.546 613.273C375.244 613.554 376.941 613.975 378.78 614.256H378.921C379.204 614.256 379.487 613.975 379.628 613.694C379.346 613.413 379.063 612.992 378.78 612.992ZM416.403 617.345C418.1 617.345 419.939 617.345 421.636 617.205C422.061 617.205 422.344 616.924 422.202 616.503C422.202 616.081 421.919 615.941 421.495 615.941C419.798 615.941 417.959 616.081 416.262 616.081C415.837 616.081 415.554 616.362 415.554 616.783C415.837 617.064 416.12 617.345 416.403 617.345ZM364.777 610.043C363.08 609.621 361.383 609.2 359.685 608.779C359.402 608.638 358.978 608.919 358.837 609.2C358.695 609.481 358.978 609.902 359.261 610.043C360.958 610.464 362.655 610.885 364.353 611.307H364.494C364.777 611.307 365.06 611.166 365.06 610.745C365.343 610.464 365.06 610.043 364.777 610.043ZM430.83 616.643C432.669 616.503 434.366 616.362 436.063 616.222C436.488 616.222 436.629 615.8 436.629 615.52C436.629 615.098 436.205 614.958 435.922 614.958C434.225 615.098 432.527 615.239 430.689 615.379C430.264 615.379 430.123 615.66 430.123 616.081C430.264 616.362 430.547 616.643 430.83 616.643ZM233.944 310.779C233.095 312.324 232.247 313.869 231.398 315.413C231.257 315.694 231.398 316.116 231.681 316.256C231.822 316.256 231.822 316.396 231.964 316.396C232.247 316.396 232.388 316.256 232.529 316.116C233.378 314.571 234.227 313.026 235.075 311.622C235.217 311.341 235.075 310.92 234.793 310.779C234.51 310.358 234.227 310.358 233.944 310.779ZM241.582 298.421C240.592 299.825 239.602 301.37 238.753 302.774C238.611 303.055 238.611 303.477 238.894 303.617C239.036 303.617 239.177 303.757 239.177 303.757C239.46 303.757 239.602 303.617 239.743 303.477C240.733 302.072 241.582 300.527 242.572 299.123C242.713 298.842 242.713 298.421 242.43 298.281C242.147 298.14 241.723 298.14 241.582 298.421ZM512.442 592.067C512.583 592.348 512.725 592.348 513.008 592.348C513.149 592.348 513.29 592.348 513.29 592.208C513.432 592.067 513.715 592.067 513.856 591.927L514.139 590.242C513.715 590.522 513.149 590.803 512.725 591.084C512.442 591.365 512.3 591.786 512.442 592.067ZM407.351 617.205C407.634 617.205 408.058 616.924 408.058 616.643C408.058 616.222 407.775 615.941 407.492 615.941C405.795 615.941 403.956 615.8 402.259 615.66C401.976 615.66 401.552 615.941 401.552 616.222C401.552 616.503 401.835 616.924 402.118 616.924C403.815 617.064 405.512 617.064 407.351 617.205ZM571.989 279.322C571.706 279.603 571.706 280.024 571.847 280.305C572.979 281.569 574.11 282.973 575.1 284.378C575.242 284.518 575.383 284.658 575.666 284.658C575.807 284.658 575.949 284.659 576.09 284.518C576.373 284.237 576.373 283.956 576.232 283.675C575.1 282.271 573.969 281.007 572.837 279.603C572.696 279.041 572.271 279.041 571.989 279.322ZM306.362 587.152C307.918 587.995 309.332 588.978 310.888 589.82C311.029 589.82 311.171 589.961 311.171 589.961C311.454 589.961 311.595 589.82 311.737 589.68C311.878 589.399 311.878 588.978 311.454 588.837C309.898 587.995 308.483 587.152 306.928 586.169C306.645 586.029 306.22 586.029 306.079 586.45C305.938 586.59 306.079 587.012 306.362 587.152ZM318.95 594.174C320.506 595.016 322.062 595.718 323.618 596.561C323.759 596.561 323.759 596.561 323.901 596.561C324.183 596.561 324.325 596.421 324.466 596.14C324.608 595.859 324.466 595.438 324.183 595.297C322.628 594.595 321.072 593.752 319.516 592.91C319.233 592.769 318.809 592.91 318.667 593.191C318.526 593.612 318.667 594.033 318.95 594.174ZM298.583 582.237C298.724 582.377 298.865 582.377 299.007 582.377C299.148 582.377 299.431 582.237 299.573 582.096C299.714 581.816 299.714 581.394 299.431 581.254C298.017 580.271 296.602 579.288 295.188 578.305C294.905 578.164 294.481 578.164 294.339 578.445C294.198 578.726 294.198 579.147 294.481 579.288C295.754 580.271 297.168 581.254 298.583 582.237ZM265.485 554.571C265.627 554.712 265.768 554.712 265.91 554.712C266.051 554.712 266.193 554.712 266.334 554.571C266.617 554.291 266.617 553.869 266.334 553.588C265.061 552.325 263.929 551.061 262.798 549.797C262.515 549.516 262.091 549.516 261.808 549.797C261.525 550.078 261.525 550.499 261.808 550.78C263.081 552.044 264.212 553.308 265.485 554.571ZM286.984 573.67C287.126 573.811 287.267 573.811 287.409 573.811C287.55 573.811 287.833 573.67 287.974 573.53C288.257 573.249 288.116 572.828 287.833 572.687C286.419 571.564 285.146 570.581 283.731 569.457C283.448 569.177 283.024 569.317 282.883 569.598C282.6 569.879 282.741 570.3 283.024 570.44C284.156 571.564 285.57 572.687 286.984 573.67ZM332.104 600.353C333.66 601.055 335.357 601.757 336.913 602.319C337.055 602.319 337.055 602.319 337.196 602.319C337.479 602.319 337.762 602.178 337.762 601.898C337.903 601.617 337.762 601.195 337.337 601.055C335.782 600.353 334.084 599.791 332.528 599.089C332.246 598.948 331.821 599.089 331.68 599.37C331.538 599.931 331.68 600.212 332.104 600.353ZM275.811 564.542C275.952 564.683 276.093 564.683 276.235 564.683C276.376 564.683 276.659 564.542 276.659 564.402C276.942 564.121 276.942 563.7 276.659 563.419C275.386 562.295 274.113 561.031 272.84 559.908C272.557 559.627 272.133 559.627 271.85 559.908C271.567 560.189 271.567 560.61 271.85 560.891C273.265 562.155 274.538 563.278 275.811 564.542ZM412.16 207.42C412.584 207.42 412.867 207.139 412.867 206.718C412.867 206.297 412.584 206.156 412.16 206.016C411.028 206.016 409.897 206.016 408.765 206.156V207.42C409.897 207.42 411.028 207.42 412.16 207.42ZM580.899 290.557C580.616 290.697 580.475 291.118 580.758 291.399C581.748 292.804 582.738 294.208 583.728 295.612C583.87 295.753 584.011 295.893 584.294 295.893C584.435 295.893 584.577 295.893 584.718 295.753C585.001 295.612 585.143 295.191 584.86 294.91C583.87 293.506 582.88 292.101 581.889 290.697C581.607 290.416 581.182 290.276 580.899 290.557ZM256.716 280.445C256.857 280.305 256.999 280.024 257.14 279.884L256.15 280.726C256.433 280.726 256.575 280.586 256.716 280.445ZM311.029 234.945C311.171 234.945 311.312 234.945 311.312 234.805C312.868 233.962 314.283 233.119 315.838 232.277C316.121 232.136 316.263 231.715 316.121 231.434C315.98 231.153 315.556 231.013 315.273 231.153C314.99 231.294 314.848 231.434 314.565 231.575L310.605 234.945C310.747 234.945 310.888 234.945 311.029 234.945ZM618.664 387.315C618.806 387.737 618.947 388.017 619.089 388.439C619.23 388.439 619.23 388.579 619.371 388.579C619.371 388.579 619.371 388.579 619.513 388.579C619.937 388.579 620.079 388.158 620.079 387.877C619.937 386.754 619.796 385.771 619.654 384.647H618.381C618.523 385.49 618.664 386.473 618.664 387.315ZM418.808 377.625L409.331 319.346H407.634L417.11 377.625H418.808ZM500.136 714.666L483.871 718.879L477.364 715.087L483.871 718.879L500.136 714.666ZM480.759 728.288H494.903H497.025C497.308 727.304 497.59 726.322 497.732 725.338L498.863 719.721L480.759 728.288ZM472.98 703.712C473.404 708.487 473.687 713.261 474.111 718.036L477.506 714.946L495.327 694.022L497.873 679.979L500.844 663.688C499.571 655.964 497.732 648.521 495.186 641.359C495.045 641.219 495.045 640.938 495.045 640.798C490.66 628.299 490.518 615.379 492.357 602.178C492.64 602.038 492.781 601.757 492.64 601.336C492.64 601.195 492.499 601.195 492.499 601.195C495.893 577.743 505.653 553.448 509.472 529.434H453.178C454.168 565.244 456.29 603.442 463.503 635.882C465.342 644.168 466.898 652.594 468.171 660.88C470.292 674.782 471.848 688.685 472.98 702.729C472.838 703.15 472.838 703.431 472.98 703.712ZM638.325 541.371C637.052 541.932 635.779 542.635 634.364 543.196L629.555 529.574H628.707L627.575 545.724C622.483 547.409 617.108 548.673 611.592 549.656V592.208C617.108 589.539 621.917 585.748 626.019 581.394C635.637 570.862 640.446 556.397 638.325 541.371ZM518.241 568.896L518.382 569.177L518.524 569.036L526.162 573.811C535.072 579.428 541.013 588.837 542.144 598.948C547.095 599.229 553.035 599.51 559.542 599.51C571.706 599.51 585.85 598.808 599.287 596.28C602.257 595.718 605.227 594.876 607.915 593.752V550.078C607.066 550.218 606.217 550.358 605.369 550.358L518.241 568.896ZM513.715 518.621L512.442 512.722L508.623 496.853L500.702 462.868H498.015L512.017 522.834H557.279L556.289 518.621H513.715ZM604.661 529.574H608.056H611.309H628.707H629.555H638.183H689.385H693.204H703.246V522.834H694.194H693.204H689.385H636.486H604.661V529.574ZM289.106 580.552C271.992 572.126 253.038 563.84 234.368 556.116C221.356 557.942 208.06 557.521 195.33 554.571V595.859C200.139 599.229 205.797 601.617 212.02 602.881C232.247 606.672 252.756 609.2 271.992 614.537C270.577 615.379 269.304 616.362 268.031 617.626C259.969 625.631 255.867 642.623 253.321 662.003C253.321 662.424 253.18 662.846 253.18 663.126C251.907 673.799 251.058 685.175 250.351 696.269C249.927 702.167 249.644 707.925 249.361 713.402C249.22 715.227 249.078 717.053 249.078 718.738L250.493 719.019L251.058 719.159L268.173 722.109L269.87 722.389C272.133 712.84 276.659 696.831 281.893 679.136C282.034 678.715 282.034 678.434 282.175 678.012C286.56 663.267 291.228 647.538 295.612 633.495C300.28 618.328 304.382 605.268 306.645 597.685C308.059 593.331 308.766 590.803 308.766 590.803C302.684 587.433 296.037 583.922 289.106 580.552ZM191.653 593.05V553.729C187.268 552.605 183.025 551.061 178.923 549.235C175.67 560.329 177.226 571.845 182.318 581.254C184.722 585.748 187.834 589.68 191.653 593.05ZM289.53 518.621H256.716H246.957L245.966 522.834H291.228L305.23 462.868H302.543L295.471 493.202L292.642 504.998L289.53 518.621ZM195.189 529.574H198.584V522.834H181.469H99.999V529.574H180.762H191.936H195.189Z" fill="#757575"/>
<path d="M508.623 496.853L512.3 512.722C515.412 513.284 518.382 513.144 521.211 512.02C522.343 511.599 523.191 510.756 523.757 509.773C526.162 509.211 528.566 508.65 530.971 508.509C535.921 510.756 540.73 512.441 545.398 510.897C547.236 510.335 548.651 508.931 549.217 507.105C555.298 506.684 560.956 506.403 566.331 506.262C571.564 506.122 576.656 505.982 581.465 505.841C580.475 500.224 580.616 494.466 581.324 488.849C572.271 491.236 562.795 493.904 555.016 495.73C554.591 492.5 554.308 489.13 554.308 485.9C547.095 488.849 539.599 491.798 532.951 494.326C529.415 494.466 525.879 495.589 522.767 497.134C520.504 496.713 518.241 496.572 515.978 496.572C514.281 496.572 512.725 496.713 511.027 496.853C510.32 496.713 509.472 496.713 508.623 496.853ZM526.162 573.811L518.524 569.036L518.382 569.177L518.099 569.457L514.281 590.382L513.998 592.067L503.672 648.381L500.844 663.829L497.873 680.119L495.327 694.162L477.506 715.087L483.871 718.879L500.136 714.806L502.117 714.244L507.633 701.886L506.643 698.797L507.491 696.55L512.725 683.911L520.08 666.356L535.072 630.265C536.062 627.878 536.911 625.631 537.76 623.243L555.299 673.659L555.723 674.642L563.926 698.375L568.594 711.857L563.502 738.68L570.999 738.82L584.577 725.9L583.304 712.419L580.899 710.172L578.919 694.162L575.1 663.267L574.959 662.143L571.847 636.444C570.716 627.456 568.453 618.75 564.917 610.464C563.361 606.672 561.522 603.021 559.542 599.51C553.035 599.51 547.095 599.229 542.144 598.948C541.013 588.837 535.072 579.428 526.162 573.811ZM598.58 405.993L600.701 405.712C601.267 401.78 601.691 397.848 602.257 393.916C607.632 391.809 612.724 388.86 617.108 385.068V384.507L616.118 369.34H615.977C616.26 367.795 616.543 366.25 616.543 364.706L612.441 361.476C604.944 359.931 597.731 356.982 591.225 352.628C583.728 347.573 576.798 340.972 572.979 333.108L576.373 370.744V370.885C576.373 379.591 583.587 386.613 588.82 386.613H594.478C595.468 386.613 596.599 386.473 597.589 386.332L598.155 394.899L598.58 405.993ZM525.172 711.155L530.546 711.014C532.385 711.014 534.224 710.312 535.638 709.189L541.862 704.414L536.487 696.831L522.626 708.627L525.172 711.155ZM476.657 730.254L476.799 731.798L481.042 735.169C482.456 736.292 484.295 736.994 486.134 737.135L494.054 737.556L494.903 728.288H480.759L476.657 730.254ZM475.384 354.033C481.042 347.994 487.407 342.657 494.762 339.147L494.479 336.478L493.206 321.592L493.064 319.907C493.489 318.363 493.63 316.677 493.63 314.992C495.327 314.15 496.459 312.464 496.459 310.498V306.987C496.459 304.179 494.196 301.932 491.367 301.932C488.538 301.932 486.275 304.179 486.275 306.987V308.953H483.446L480.193 292.382L475.95 290.276L474.536 282.271H452.046V294.068V320.89C452.046 329.176 458.836 335.917 467.181 335.917H470.717L471.282 342.938L472.272 354.313L475.384 354.033ZM433.376 414.7C434.225 414.7 435.073 414.559 435.922 414.559C435.781 414.279 435.639 413.998 435.498 413.857L429.699 408.942L404.805 388.017C406.502 384.366 406.078 380.996 404.805 377.625C403.956 375.519 402.683 373.553 401.269 371.446C400.986 368.497 401.128 365.408 401.552 362.318C401.693 361.616 400.562 361.335 400.137 362.037C399.006 364.706 398.157 367.935 398.157 371.165C398.016 371.165 397.874 371.165 397.591 371.165C397.591 371.025 397.591 370.885 397.591 370.744C397.309 367.795 397.45 364.706 397.874 361.616C398.016 360.914 396.884 360.633 396.46 361.335C395.187 364.284 394.338 368.076 394.48 371.587C394.48 371.165 394.338 370.885 394.338 370.463C394.055 367.514 394.197 364.425 394.621 361.335C394.763 360.633 393.631 360.352 393.207 361.054C391.651 364.565 390.944 368.919 391.368 372.851C391.227 372.991 391.085 373.132 390.802 373.132V372.991C390.519 370.042 390.661 366.952 391.085 363.863C391.227 363.161 390.095 362.88 389.671 363.582C387.832 367.655 387.125 372.991 388.256 377.485C388.398 378.047 388.539 378.608 388.822 379.17C389.529 383.804 391.085 388.158 393.49 392.23L406.078 415.402C392.5 415.683 378.921 416.104 368.455 417.087C363.787 416.806 359.119 417.508 354.735 419.053C349.643 419.475 344.41 423.126 341.156 427.058C340.732 427.62 341.439 428.462 342.005 428.181C344.551 426.496 347.097 424.811 349.926 423.688H350.067C350.067 423.828 350.067 424.109 349.926 424.249C346.107 425.654 342.571 428.462 340.166 431.271C339.742 431.833 340.449 432.675 341.015 432.394C343.561 430.709 346.107 429.024 348.936 427.901C349.219 427.76 349.643 427.62 350.067 427.479C346.814 429.024 343.985 431.411 341.864 433.939C341.439 434.501 342.146 435.344 342.712 435.063C345.258 433.377 347.804 431.692 350.633 430.569C350.774 430.569 350.916 430.428 351.057 430.428C351.199 430.569 351.199 430.709 351.34 430.85C348.511 432.394 345.965 434.501 344.127 436.748C343.702 437.31 344.41 438.152 344.975 437.871C347.521 436.186 350.067 434.501 352.896 433.377C359.261 434.08 365.06 433.939 369.162 428.884C390.944 436.748 413.857 441.944 436.912 444.05C435.356 434.501 432.669 424.39 433.376 414.7ZM361.948 736.292C363.646 736.292 365.343 735.731 366.757 734.748L370.01 732.36L366.899 723.372L351.482 730.113L355.018 736.433L361.948 736.292ZM260.111 500.505C256.15 499.1 251.341 497.696 246.249 496.011C245.966 495.87 245.542 495.87 245.259 495.73C244.552 495.449 243.845 495.309 243.138 495.028V495.168C230.691 492.079 217.254 488.849 207.636 486.602C205.797 491.376 205.09 496.151 204.948 501.066C204.948 502.049 204.948 503.032 204.948 504.015C204.948 505.982 205.09 507.948 205.373 509.914C220.366 509.914 232.954 506.543 238.046 505.841C243.42 510.054 252.756 508.228 255.726 507.526C256.716 507.807 257.847 508.228 258.838 508.65C259.686 509.071 260.676 509.492 261.525 510.054C261.808 511.458 262.232 512.722 262.515 514.127C266.9 513.424 271.143 512.301 274.962 511.318C275.528 511.599 276.235 511.88 276.801 512.161C277.791 512.722 278.781 511.458 278.074 510.616L277.932 510.475C284.438 508.369 289.672 506.262 292.925 505.139L295.754 493.342C283.448 492.359 270.294 491.517 260.959 490.955C259.969 494.045 259.828 497.275 260.111 500.505ZM257.847 729.411C259.545 729.552 261.384 729.271 262.939 728.288L267.465 725.619L268.314 722.109L251.2 719.159L250.351 728.568L257.847 729.411ZM214.849 400.797L215.981 388.017H219.517C228.145 388.017 235.075 381.136 235.075 372.57V344.624V332.968H212.02L210.606 341.113L206.363 343.36L202.968 360.493H199.998V358.386C199.998 355.577 197.593 353.19 194.765 353.19C191.936 353.19 189.531 355.577 189.531 358.386V362.037C189.531 364.003 190.663 365.829 192.36 366.672C192.36 368.357 192.643 370.042 192.926 371.727L192.502 376.502L191.512 388.72C199.857 391.388 207.777 395.46 214.849 400.797Z" fill="#FFD2BB"/>
<path d="M474.536 282.131L475.95 290.135L480.193 292.242L483.446 308.813H486.275V306.847C486.275 304.038 488.538 301.791 491.367 301.791C494.196 301.791 496.459 304.038 496.459 306.847V310.358C496.459 312.324 495.328 314.009 493.63 314.852C493.63 316.537 493.347 318.222 493.064 319.767L493.206 321.452C497.166 313.307 499.995 304.6 501.409 295.612C501.834 292.523 502.258 289.293 501.409 286.203C500.702 283.114 498.722 280.165 495.752 279.041C496.176 271.317 491.65 264.717 484.295 262.049C476.94 259.38 468.737 260.223 461.099 261.627C459.26 261.908 457.28 262.33 455.441 262.189C453.602 261.908 451.622 261.066 450.773 259.38C444.409 264.155 440.731 272.3 442.287 280.024C443.419 285.642 447.096 290.697 452.046 293.787V281.99L474.536 282.131ZM590.942 352.769C597.448 357.122 604.662 360.071 612.158 361.616L616.26 364.846C616.26 366.391 616.118 367.936 615.694 369.48H615.835L616.826 384.647H617.533H618.099H619.372H630.687C634.081 380.575 636.769 375.94 638.466 370.885C643.558 356.841 641.861 340.411 634.93 327.21C627.858 313.728 615.128 303.617 600.984 301.51C586.84 299.404 571.423 305.864 563.361 318.643C555.299 331.423 555.581 349.96 565.058 361.616L575.666 370.885L572.272 333.248C576.656 340.972 583.445 347.713 590.942 352.769ZM192.36 366.531C190.663 365.689 189.531 363.863 189.531 361.897V358.246C189.531 355.437 191.936 353.05 194.765 353.05C197.593 353.05 199.998 355.437 199.998 358.246V360.352H202.968L206.363 343.219L210.606 340.972L212.021 332.827H235.075V344.483C236.631 343.5 240.026 333.529 241.299 332.265C244.835 328.755 244.835 324.542 241.016 321.171C236.066 316.818 228.286 315.133 221.78 313.869C210.748 311.903 193.35 310.639 188.541 322.576C186.844 326.789 187.834 331.282 186.985 335.636C186.278 339.006 184.581 342.236 184.157 345.747C183.732 349.258 184.298 353.05 185.147 356.56C186.703 363.301 189.531 369.761 192.643 376.081L193.067 371.306C192.643 369.902 192.36 368.216 192.36 366.531Z" fill="#625D5D"/>
<path d="M490.236 68.5315C490.236 64.5994 486.982 61.3694 483.022 61.3694C479.062 61.3694 475.809 64.5994 475.809 68.5315C475.809 72.4636 479.062 75.6936 483.022 75.6936C486.982 75.6936 490.236 72.6041 490.236 68.5315ZM523.474 86.9283C523.474 84.8218 521.777 83.1366 519.655 83.1366C517.534 83.1366 515.836 84.8218 515.836 86.9283C515.836 89.0348 517.534 90.72 519.655 90.72C521.777 90.72 523.474 88.8943 523.474 86.9283ZM320.082 132.85C320.082 130.182 320.506 127.514 321.355 125.126C321.496 124.705 321.637 124.284 321.779 123.862C325.315 115.155 333.943 108.976 343.985 108.976C349.784 108.976 355.159 111.083 359.261 114.453C359.544 114.734 359.827 115.015 360.11 115.296C364.919 119.649 367.889 125.828 367.889 132.71H408.765V119.649C401.128 119.649 394.197 116.419 389.246 111.364C388.964 111.083 388.681 110.802 388.539 110.521C384.296 105.746 381.75 99.5673 381.75 92.8265C381.75 78.081 393.773 66.0037 408.765 66.0037V45.9217H304.523C295.047 45.9217 287.409 53.5051 287.409 62.9142V132.71H297.592H300.28H320.082V132.85ZM351.906 63.4759H362.514V99.4269H351.906V63.4759ZM337.055 58.7012H347.663V99.4269H337.055V58.7012ZM322.203 73.4467H332.811V99.4269H322.203V73.4467ZM368.455 174.137C369.303 175.963 370.718 177.508 372.698 178.35C372.839 178.35 372.981 178.491 373.122 178.491C374.112 178.912 375.102 179.053 376.092 179.053C377.082 179.053 378.073 178.912 379.063 178.491C379.204 178.491 379.346 178.35 379.487 178.35C381.326 177.508 382.882 176.104 383.73 174.137C383.73 173.997 383.872 173.857 383.872 173.716C384.296 172.733 384.437 171.75 384.437 170.767C384.437 169.784 384.296 168.801 383.872 167.818C383.872 167.677 383.73 167.537 383.73 167.397C382.882 165.571 381.467 164.026 379.487 163.184C379.346 163.184 379.204 163.043 379.063 163.043C378.073 162.762 377.082 162.481 376.092 162.481C375.102 162.481 374.112 162.622 373.122 163.043C372.981 163.043 372.839 163.184 372.698 163.184C370.859 164.026 369.303 165.431 368.455 167.397C368.455 167.537 368.313 167.677 368.313 167.818C368.03 168.801 367.747 169.784 367.747 170.767C367.747 171.75 367.889 172.733 368.313 173.716C368.455 173.857 368.455 173.997 368.455 174.137ZM347.38 178.07C346.107 175.261 343.985 173.154 341.156 171.89C341.015 171.75 340.732 171.75 340.591 171.61C339.176 171.048 337.762 170.767 336.206 170.767C334.65 170.767 333.236 171.048 331.821 171.61C331.538 171.75 331.397 171.75 331.256 171.89C328.427 173.154 326.305 175.261 325.032 178.07C324.891 178.35 324.891 178.491 324.749 178.631C324.183 180.036 323.901 181.44 323.901 182.985C323.901 184.53 324.183 185.934 324.749 187.338C324.891 187.479 324.891 187.759 325.032 187.9C326.305 190.709 328.427 192.815 331.256 194.079C331.397 194.219 331.68 194.219 331.821 194.36C333.236 194.922 334.65 195.202 336.206 195.202C337.762 195.202 339.176 194.922 340.591 194.36C340.732 194.219 341.015 194.219 341.156 194.079C343.985 192.815 346.107 190.709 347.38 187.9C347.521 187.759 347.521 187.479 347.663 187.338C348.228 185.934 348.511 184.53 348.511 182.985C348.511 181.44 348.228 180.036 347.663 178.631C347.663 178.491 347.521 178.21 347.38 178.07ZM414.423 119.79V132.85H455.441C455.441 135.237 455.724 137.625 456.29 139.872H414.423V158.83C414.564 158.83 414.847 158.83 414.989 158.83C427.436 158.83 437.619 168.941 437.619 181.3C437.619 193.658 427.436 203.769 414.989 203.769C414.847 203.769 414.564 203.769 414.423 203.769V223.149H423.475L437.902 245.758L438.185 223.149H491.508L545.115 267.666L530.829 223.149H531.819C541.296 223.149 548.934 215.565 548.934 206.156V142.119V140.995V140.012H546.954H544.549H512.017C512.583 137.765 512.866 135.378 512.866 132.99H528.566H531.254H548.792V63.0546C548.792 53.6456 541.154 46.0622 531.678 46.0622H414.282V66.2846C399.713 66.5654 387.832 78.5023 387.832 93.1073C387.832 99.7077 390.237 105.746 394.197 110.381C394.48 110.662 394.763 110.942 394.904 111.223C399.996 116.419 406.785 119.649 414.423 119.79ZM450.208 205.735L479.627 176.525C480.476 175.682 481.608 175.682 482.456 176.525C483.305 177.367 483.305 178.491 482.456 179.333L453.036 208.544C452.188 209.386 451.056 209.386 450.208 208.544C449.359 207.841 449.359 206.578 450.208 205.735ZM509.189 149.983C516.261 157.005 516.261 168.239 509.189 175.261C502.117 182.283 490.801 182.283 483.729 175.261C476.657 168.239 476.657 157.005 483.729 149.983C490.66 143.102 502.117 143.102 509.189 149.983ZM519.655 80.047C523.474 80.047 526.586 83.1366 526.586 86.9283C526.586 90.72 519.655 98.8651 519.655 98.8651C519.655 98.8651 512.725 90.72 512.725 86.9283C512.725 83.1366 515.836 80.047 519.655 80.047ZM483.022 55.4712C490.377 55.4712 496.317 61.3694 496.317 68.6719C496.317 75.9745 483.022 91.5626 483.022 91.5626C483.022 91.5626 469.727 75.9745 469.727 68.6719C469.727 61.3694 475.667 55.4712 483.022 55.4712ZM484.154 98.4438C499.712 98.4438 512.3 110.662 512.866 125.969C512.866 126.25 512.866 126.671 512.866 126.952C512.866 127.935 512.866 128.918 512.725 129.901C512.583 128.777 512.442 127.794 512.159 126.671C512.018 126.25 512.017 125.828 511.876 125.547C508.623 113.33 497.449 104.202 484.154 104.202C475.809 104.202 468.312 107.712 463.079 113.47C462.796 113.751 462.654 114.032 462.372 114.313C458.694 118.526 456.29 124.003 455.582 129.901C455.441 128.918 455.441 127.935 455.441 126.952C455.441 122.177 456.572 117.683 458.694 113.751C458.836 113.47 458.977 113.189 459.118 112.908C464.069 104.202 473.404 98.4438 484.154 98.4438ZM452.329 91.703C452.329 97.3204 442.004 109.538 442.004 109.538C442.004 109.538 431.679 97.3204 431.679 91.703C431.679 86.0857 436.346 81.4514 442.004 81.4514C447.662 81.4514 452.329 85.9452 452.329 91.703ZM436.346 91.703C436.346 94.7926 438.892 97.3204 442.004 97.3204C445.116 97.3204 447.662 94.7926 447.662 91.703C447.662 88.6135 445.116 86.0857 442.004 86.0857C438.892 86.0857 436.346 88.6135 436.346 91.703ZM485.002 173.997C491.226 180.176 501.409 180.176 507.774 173.997C513.998 167.818 513.998 157.707 507.774 151.387C501.551 145.208 491.367 145.208 485.002 151.387C478.779 157.566 478.779 167.677 485.002 173.997ZM343.985 115.015C337.196 115.015 330.973 117.964 326.588 122.458C326.164 122.879 325.739 123.441 325.315 123.862C322.062 127.935 320.082 133.131 320.082 138.748C320.082 139.17 320.082 139.45 320.082 139.872H287.409V206.016C287.409 211.633 290.238 216.689 294.481 219.778L251.483 284.799L256.292 280.726L257.282 279.884L310.747 234.805L314.707 231.434L324.749 223.008H408.765V207.42V206.156V203.628C409.331 203.628 410.038 203.769 410.604 203.769C423.051 203.769 433.235 193.658 433.235 181.3C433.235 168.941 423.051 158.83 410.604 158.83C409.897 158.83 409.331 158.83 408.765 158.971V139.872H367.889C367.889 139.45 367.889 139.17 367.889 138.748C367.889 128.777 361.807 120.351 353.037 116.7C352.472 116.419 351.906 116.279 351.34 116.138C349.077 115.436 346.531 115.015 343.985 115.015ZM360.675 187.479H356.432C355.866 189.866 355.018 192.113 353.603 194.219L356.574 197.169L350.35 203.348L347.38 200.398C345.4 201.662 343.137 202.645 340.591 203.207V207.42H331.821V203.207C329.417 202.645 327.154 201.803 325.032 200.398L322.062 203.348L315.838 197.169L318.809 194.219C317.536 192.253 316.546 190.006 315.98 187.479H311.737V178.772H315.98C316.546 176.384 317.394 174.137 318.809 172.031L315.838 168.941L322.062 162.762L325.032 165.852C327.012 164.588 329.275 163.605 331.821 163.043V158.83H340.591V163.043C342.995 163.605 345.258 164.448 347.38 165.852L350.35 162.762L356.574 168.941L353.603 172.031C354.876 173.997 355.866 176.244 356.432 178.772H360.675V187.479ZM373.122 157.285V154.477H379.063V157.285C380.76 157.566 382.174 158.268 383.589 159.111L385.569 157.145L389.812 161.358L387.832 163.324C388.681 164.728 389.388 166.133 389.671 167.818H392.5V173.716H389.671C389.388 175.401 388.681 176.806 387.832 178.21L389.812 180.176L385.569 184.389L383.589 182.423C382.174 183.266 380.76 183.968 379.063 184.249V187.057H373.122V184.249C371.425 183.968 370.01 183.266 368.596 182.423L366.616 184.389L362.373 180.176L364.353 178.21C363.504 176.806 362.797 175.401 362.514 173.716H359.685V167.818H362.514C362.797 166.273 363.504 164.728 364.353 163.324L362.373 161.358L366.616 157.145L368.596 159.111C370.01 158.268 371.425 157.707 373.122 157.285Z" fill="#B2B9FF"/>
<path d="M347.663 99.4268H337.055V58.7011H347.663V99.4268ZM360.11 115.296L359.261 114.453C356.715 115.155 354.028 115.577 351.34 116.138C351.906 116.279 352.472 116.56 353.037 116.7C355.442 116.279 357.705 115.717 360.11 115.296ZM362.514 63.4759H351.906V99.4268H362.514V63.4759ZM326.588 122.598C324.891 123.02 323.335 123.441 321.779 124.003C321.637 124.424 321.496 124.845 321.355 125.267C322.628 124.845 324.042 124.424 325.315 124.003C325.739 123.441 326.164 123.02 326.588 122.598ZM332.811 73.4467H322.203V99.4268H332.811V73.4467ZM463.079 113.47C461.806 113.33 460.533 113.049 459.118 112.908C458.977 113.189 458.836 113.47 458.694 113.751C459.967 113.891 461.099 114.172 462.372 114.313C462.654 114.032 462.796 113.751 463.079 113.47ZM442.004 109.538C442.004 109.538 431.679 97.3203 431.679 91.703C431.679 85.9452 436.346 81.4514 442.004 81.4514C447.662 81.4514 452.329 86.0857 452.329 91.703C452.329 97.3203 442.004 109.538 442.004 109.538ZM442.004 97.3203C445.116 97.3203 447.662 94.7925 447.662 91.703C447.662 88.6135 445.116 86.0857 442.004 86.0857C438.892 86.0857 436.346 88.6135 436.346 91.703C436.346 94.7925 438.892 97.3203 442.004 97.3203ZM689.389 702.307H689.385V678.574C684.434 704.414 680.191 730.254 680.898 756.094H689.243C689.289 755.883 689.344 755.675 689.389 755.464V702.307ZM147.24 679.557C148.796 684.051 150.211 688.545 151.908 693.039C152.898 695.707 148.655 696.831 147.665 694.162C146.392 690.511 145.119 686.86 143.846 683.068C143.139 683.911 142.29 684.753 141.583 685.596C150.352 708.767 157.707 732.36 164.921 755.953H166.476C160.536 729.13 156.434 701.746 153.464 674.221C151.201 675.906 149.221 677.732 147.24 679.557ZM483.022 91.4221C483.022 91.4221 469.727 75.834 469.727 68.5315C469.727 61.2289 475.667 55.3307 483.022 55.3307C490.377 55.3307 496.317 61.2289 496.317 68.5315C496.317 75.834 483.022 91.4221 483.022 91.4221ZM483.022 75.6936C486.982 75.6936 490.236 72.4636 490.236 68.5315C490.236 64.5994 486.982 61.3694 483.022 61.3694C479.062 61.3694 475.808 64.5994 475.808 68.5315C475.808 72.6041 479.062 75.6936 483.022 75.6936ZM191.653 741.208V691.354C188.683 707.925 186.278 724.636 185.571 741.208H191.653ZM300.28 132.85H297.592C261.949 147.736 229.135 169.503 200.988 197.449C189.814 208.544 179.489 220.48 170.295 232.979C170.578 233.119 170.861 233.4 171.144 233.681C203.675 189.304 248.371 154.055 300.28 132.85ZM133.945 697.533C137.057 703.291 140.027 709.048 142.856 714.946C143.987 717.474 140.31 719.721 139.037 717.193C136.632 712.278 134.228 707.503 131.682 702.729C131.116 704.133 130.55 705.678 130.126 707.223C139.32 723.092 147.806 739.382 156.434 755.532C156.576 755.813 156.717 755.953 156.858 756.234H160.536C153.605 733.765 146.675 711.576 138.471 689.809C136.774 692.337 135.218 694.865 133.945 697.533ZM128.57 713.261C127.863 717.053 127.58 720.845 127.722 724.636C130.833 730.675 134.511 736.573 137.481 742.612C139.603 747.106 141.583 751.6 143.704 756.094H151.908C151.625 755.672 151.484 755.251 151.201 754.97C143.846 740.927 136.491 727.024 128.57 713.261ZM134.511 519.604C120.932 485.478 113.436 448.404 113.436 409.504C113.436 352.628 129.56 299.404 157.424 254.044C157.141 253.904 156.858 253.623 156.576 253.482C127.863 299.966 112.587 353.611 112.587 409.504C112.587 447.842 119.801 485.197 133.662 519.884C133.803 519.744 134.086 519.604 134.511 519.604ZM168.032 583.08C168.315 582.939 168.739 582.799 169.022 582.658C159.829 569.598 151.484 555.976 144.412 541.792C144.129 541.932 143.846 542.213 143.421 542.354C150.494 556.538 158.697 570.16 168.032 583.08ZM634.364 543.196C635.779 542.635 637.052 542.073 638.325 541.371C639.032 541.09 639.598 540.669 640.305 540.388C639.598 536.596 638.89 532.945 638.042 529.574H629.555L634.364 543.196ZM655.722 589.68C669.017 572.126 680.333 553.308 689.385 533.647V531.119C680.191 551.622 668.593 570.862 655.156 588.697C655.297 588.978 655.58 589.399 655.722 589.68ZM629.414 697.533C632.525 703.291 635.496 709.048 638.325 714.946C639.597 717.474 635.779 719.721 634.506 717.193C632.101 712.278 629.697 707.503 627.151 702.729C626.585 704.133 626.019 705.678 625.595 707.223C634.788 723.092 643.275 739.382 651.903 755.532C652.044 755.813 652.186 755.953 652.327 756.234H656.005C649.216 734.045 642.285 711.716 634.081 689.949C632.243 692.337 630.687 694.865 629.414 697.533ZM683.869 276.232C684.151 276.092 684.576 275.952 684.859 275.811C670.432 247.163 651.337 220.761 627.999 197.449C604.52 174.137 577.788 155.179 548.934 140.855V141.978C607.207 171.048 654.732 218.233 683.869 276.232ZM716.4 409.504C716.4 370.744 709.045 333.108 694.901 298.14C694.618 298.281 694.335 298.421 693.911 298.561C707.772 332.827 715.41 370.323 715.41 409.504C715.41 449.387 707.489 487.585 693.062 522.412V522.834H694.194C708.762 487.304 716.4 448.966 716.4 409.504ZM703.67 663.127C700.276 662.144 696.74 661.582 693.204 661.16V698.766H693.417V700.243C695.832 687.568 699.545 675.278 703.67 663.127ZM718.663 669.306C715.127 667.34 711.45 665.795 707.631 664.39C703.246 677.31 699.286 690.511 697.023 703.993C696.724 705.969 694.542 705.924 693.417 704.799V739.424C697.741 724.078 703.214 708.961 708.621 694.303C711.733 685.877 715.127 677.591 718.663 669.306ZM730.261 691.775C731.959 688.545 733.656 685.315 735.495 682.085C734.505 681.102 733.515 680.119 732.524 679.136C729.413 684.192 726.16 689.247 722.765 694.162C721.209 696.409 717.39 694.303 718.946 691.915C722.482 686.719 725.735 681.383 729.13 676.187C727.008 674.502 724.887 672.957 722.624 671.412C719.229 679.276 715.976 687.281 713.006 695.286C705.651 714.806 698.437 735.169 693.77 755.953H700.417C703.529 748.791 706.924 741.769 710.035 735.029C716.542 720.564 723.048 705.959 730.261 691.775ZM483.729 149.983C490.66 143.102 502.117 143.102 509.189 149.983C516.261 157.005 516.261 168.239 509.189 175.261C502.117 182.283 490.801 182.283 483.729 175.261C476.657 168.239 476.657 157.005 483.729 149.983ZM485.002 151.387C478.779 157.707 478.779 167.818 485.002 173.997C491.367 180.176 501.551 180.176 507.774 173.997C513.998 167.677 513.998 157.566 507.774 151.387C501.551 145.068 491.367 145.208 485.002 151.387ZM479.627 176.525L450.208 205.735C449.359 206.578 449.359 207.701 450.208 208.544C450.915 209.386 452.188 209.386 453.036 208.544L482.456 179.333C483.305 178.491 483.305 177.367 482.456 176.525C481.608 175.682 480.476 175.682 479.627 176.525ZM176.66 714.244C176.943 717.053 172.558 717.053 172.276 714.244C170.72 697.533 171.285 680.821 172.558 664.11C167.325 665.935 162.375 668.323 157.707 671.272C160.394 698.235 164.355 724.917 170.154 751.319C171.71 746.544 175.953 742.612 181.328 741.488C182.318 717.193 186.985 692.898 191.653 668.603V660.88C186.703 660.88 181.752 661.582 176.943 662.846C175.67 679.979 174.963 697.111 176.66 714.244ZM736.343 696.831C737.758 694.022 739.172 691.073 740.587 688.264C739.879 687.422 739.172 686.579 738.465 685.736C736.485 689.388 734.505 693.039 732.666 696.831C726.16 709.61 720.36 722.67 714.561 735.731C711.591 742.331 708.197 749.212 705.085 756.234H712.44C715.127 748.651 717.815 741.208 720.785 733.765C725.594 721.266 730.403 708.767 736.343 696.831ZM752.185 712.278C752.185 711.997 752.043 711.857 752.043 711.576C745.82 718.598 740.304 726.322 737.192 735.169C736.202 737.837 732.1 736.714 732.949 734.045C736.626 723.653 743.133 714.946 750.629 706.942C748.932 701.746 746.386 696.831 743.415 692.337C736.909 705.397 731.393 718.738 726.018 732.36C722.906 740.365 719.936 748.37 716.966 756.374H729.837C737.333 746.123 745.537 736.714 753.882 727.585C754.023 722.389 753.458 717.334 752.185 712.278ZM519.655 98.8651C519.655 98.8651 512.725 90.72 512.725 86.9283C512.725 83.1366 515.836 80.047 519.655 80.047C523.474 80.047 526.586 83.1366 526.586 86.9283C526.586 90.72 519.655 98.8651 519.655 98.8651ZM519.655 90.72C521.777 90.72 523.474 89.0348 523.474 86.9283C523.474 84.8218 521.777 83.1366 519.655 83.1366C517.534 83.1366 515.836 84.8218 515.836 86.9283C515.836 88.8943 517.534 90.72 519.655 90.72ZM640.729 405.01C638.89 398.69 635.213 392.371 629.131 389.843C627.716 389.281 626.161 389.001 624.605 388.86C603.954 407.257 589.527 431.411 587.971 458.375C583.021 441.101 581.041 421.862 586.557 404.589C581.748 408.099 577.505 411.751 574.535 414.84C550.914 439.837 574.676 448.685 571.706 471.997C571.423 474.524 570.998 477.193 570.716 479.861C565.765 481.546 560.108 483.793 554.45 486.04C554.45 489.27 554.733 492.64 555.157 495.87C562.936 494.185 572.413 491.517 581.465 488.989C580.899 494.466 580.758 500.364 581.607 505.982C576.798 506.122 571.706 506.262 566.472 506.403C565.482 511.88 564.351 517.357 563.078 522.834H636.486C635.354 518.761 634.223 514.969 632.95 511.458C629.131 499.943 625.736 491.657 626.019 484.214C627.009 479.58 627.999 475.086 629.131 470.733C631.394 463.29 633.798 457.111 636.203 448.123C636.344 447.702 636.486 447.28 636.486 447C639.88 433.939 644.548 418.07 640.729 405.01ZM516.685 338.445C509.471 336.338 501.975 335.776 494.479 336.338L494.762 339.006C487.407 342.517 481.042 347.854 475.384 353.892L472.414 354.173L471.424 342.798C465.625 345.607 460.25 349.258 455.441 353.892C454.027 355.156 453.178 356.841 452.754 358.526L429.699 408.942L435.498 413.857C435.639 414.138 435.781 414.419 435.922 414.559C435.073 414.559 434.225 414.7 433.376 414.7C432.669 424.39 435.356 434.501 437.761 444.05C442.145 444.472 446.53 444.753 450.915 444.893C450.208 450.932 449.5 456.83 448.652 462.868H500.702L508.623 496.713H511.027C512.725 496.573 514.281 496.432 515.978 496.432C527.293 449.387 530.688 400.797 526.869 352.207C526.303 345.607 522.343 339.989 516.685 338.445ZM555.157 673.799C547.661 677.732 540.164 681.383 532.385 684.613C532.668 684.753 532.809 685.175 532.951 685.455C540.589 682.226 548.226 678.574 555.581 674.783L555.157 673.799ZM546.812 139.872C541.72 137.344 536.487 135.097 531.253 132.85H528.566C533.941 135.097 539.316 137.344 544.408 139.872H546.812ZM472.838 702.729C453.885 706.52 434.366 708.487 414.423 708.487C410.604 708.487 406.785 708.346 402.966 708.206V709.048C406.785 709.189 410.604 709.329 414.423 709.329C434.225 709.329 453.885 707.363 472.98 703.712C472.98 703.431 472.98 703.15 472.838 702.729ZM642.568 679.698C644.124 684.192 645.538 688.685 647.235 693.179C648.225 695.848 643.982 696.971 642.992 694.303C641.719 690.651 640.446 687 639.173 683.208C638.466 684.051 637.617 684.894 636.91 685.736C645.679 708.908 653.034 732.501 660.248 756.094H661.804C655.722 729.13 651.62 701.886 648.791 674.361C646.67 675.906 644.689 677.732 642.568 679.698ZM388.681 110.662C388.964 110.942 389.246 111.223 389.388 111.504C391.227 111.364 393.207 111.223 395.187 111.083C394.904 110.802 394.621 110.521 394.48 110.24C392.5 110.381 390.519 110.521 388.681 110.662ZM361.807 704.695C367.606 705.678 373.264 706.52 379.204 707.223C379.204 707.082 379.204 706.661 379.346 706.38C373.405 705.678 367.464 704.835 361.524 703.712C361.665 703.993 361.807 704.414 361.807 704.695ZM389.671 167.818H392.5V173.716H389.671C389.388 175.401 388.681 176.806 387.832 178.21L389.812 180.176L385.569 184.389L383.589 182.423C382.174 183.266 380.76 183.968 379.063 184.249V187.057H373.122V184.249C371.425 183.968 370.01 183.266 368.596 182.423L366.616 184.389L362.373 180.176L364.353 178.21C363.504 176.806 362.797 175.401 362.514 173.716H359.685V167.818H362.514C362.797 166.133 363.504 164.728 364.353 163.324L362.373 161.358L366.616 157.145L368.596 159.111C370.01 158.268 371.425 157.566 373.122 157.285V154.477H379.063V157.285C380.76 157.566 382.174 158.268 383.589 159.111L385.569 157.145L389.812 161.358L387.832 163.324C388.681 164.728 389.388 166.273 389.671 167.818ZM384.437 170.767C384.437 169.784 384.155 168.801 383.872 167.818C383.872 167.677 383.73 167.537 383.73 167.397C382.882 165.431 381.326 164.026 379.487 163.184C379.346 163.184 379.204 163.043 379.063 163.043C378.073 162.622 377.082 162.481 376.092 162.481C375.102 162.481 374.112 162.622 373.122 163.043C372.981 163.043 372.839 163.184 372.698 163.184C370.718 164.026 369.303 165.571 368.455 167.397C368.455 167.537 368.313 167.677 368.313 167.818C368.03 168.801 367.747 169.784 367.747 170.767C367.747 171.75 367.889 172.733 368.313 173.716C368.313 173.857 368.455 173.997 368.455 174.137C369.303 176.103 370.859 177.508 372.698 178.35C372.839 178.35 372.981 178.491 373.122 178.491C374.112 178.912 375.102 179.053 376.092 179.053C377.082 179.053 378.073 178.772 379.063 178.491C379.204 178.491 379.346 178.35 379.487 178.35C381.467 177.508 382.882 175.963 383.73 174.137C383.73 173.997 383.872 173.857 383.872 173.716C384.296 172.733 384.437 171.75 384.437 170.767ZM611.592 549.516C617.25 548.673 622.625 547.269 627.575 545.724L628.707 529.574H611.309C611.451 530.557 611.592 531.681 611.592 532.945V549.516ZM638.325 610.604H636.91C628.989 619.311 620.503 627.456 611.592 635.18V636.585C617.25 631.81 622.625 626.754 627.999 621.558C631.535 617.907 635.071 614.396 638.325 610.604ZM623.19 724.636C626.019 730.254 629.414 735.59 632.101 741.208H632.667C635.496 741.208 638.042 741.91 640.305 743.174C634.93 733.062 629.555 723.092 623.898 713.121C623.473 716.913 623.19 720.845 623.19 724.636ZM587.406 654.139C583.304 656.947 579.202 659.756 574.959 662.424L575.1 663.548C579.202 660.88 583.304 658.211 587.406 655.403V654.139ZM587.406 716.632L583.304 712.559L584.577 726.041L570.999 738.961L563.502 738.82L562.653 741.208L559.542 750.617L553.601 757.357L569.443 753.706L578.212 741.208L584.435 732.501L587.406 741.208L589.952 748.931L592.498 748.37L589.81 721.828C589.669 719.862 588.82 718.036 587.406 716.632ZM596.741 648.521C600.418 645.713 604.096 642.764 607.773 639.815V638.41C604.096 641.359 600.418 644.308 596.741 647.258V648.521ZM561.38 529.574C560.107 534.77 558.693 540.107 557.279 545.443C570.574 551.061 588.254 552.465 605.369 550.499C606.217 550.359 607.066 550.358 607.915 550.218V533.085C607.915 531.821 608.056 530.698 608.198 529.715H604.803L561.38 529.574ZM507.633 701.746L502.117 714.104L500.136 714.666L483.871 718.738L477.506 714.946L474.111 718.036L468.171 723.372L459.684 726.322L475.384 730.956L476.657 730.254L480.759 728.288L498.863 719.721L497.732 725.339L495.469 736.854L498.015 737.556L508.906 713.121C509.754 711.436 509.896 709.329 509.33 707.223L507.633 701.746ZM229.984 682.225C231.257 680.259 232.529 678.293 233.661 676.327C232.388 675.344 231.257 674.361 229.984 673.519V682.225ZM202.12 741.208H211.879C212.869 739.101 213.718 737.135 214.708 735.029C216.688 730.675 218.668 726.322 220.648 721.828V687.562C219.658 690.23 218.527 692.758 217.537 695.426C211.879 710.312 206.363 725.619 202.12 741.208ZM356.291 178.772H360.534V187.479H356.291C355.725 190.006 354.735 192.253 353.462 194.219L356.432 197.168L350.209 203.348L347.238 200.398C345.117 201.803 342.854 202.645 340.449 203.207V207.42H331.68V203.207C329.134 202.645 326.871 201.662 324.891 200.398L321.92 203.348L315.697 197.168L318.667 194.219C317.253 192.113 316.404 189.866 315.838 187.479H311.595V178.772H315.838C316.404 176.244 317.394 173.997 318.667 172.031L315.697 168.941L321.92 162.762L324.891 165.852C327.012 164.448 329.275 163.605 331.68 163.043V158.83H340.449V163.043C342.995 163.605 345.258 164.588 347.238 165.852L350.209 162.762L356.432 168.941L353.462 172.031C354.876 173.997 355.725 176.244 356.291 178.772ZM348.511 183.125C348.511 181.58 348.228 180.176 347.663 178.772C347.521 178.631 347.521 178.491 347.38 178.21C346.107 175.401 343.985 173.295 341.156 172.031C341.015 171.89 340.732 171.89 340.591 171.75C339.176 171.188 337.762 170.907 336.206 170.907C334.65 170.907 333.236 171.188 331.821 171.75C331.68 171.89 331.397 171.89 331.256 172.031C328.427 173.295 326.305 175.401 325.032 178.21C324.891 178.35 324.891 178.491 324.749 178.772C324.183 180.176 323.901 181.58 323.901 183.125C323.901 184.67 324.183 186.074 324.749 187.479C324.891 187.619 324.891 187.9 325.032 188.04C326.305 190.849 328.427 192.955 331.256 194.219C331.397 194.36 331.538 194.36 331.821 194.5C333.236 195.062 334.65 195.343 336.206 195.343C337.762 195.343 339.176 195.062 340.591 194.5C340.732 194.36 341.015 194.36 341.156 194.219C343.985 192.955 346.107 190.849 347.38 188.04C347.521 187.9 347.521 187.619 347.663 187.479C348.228 186.074 348.511 184.529 348.511 183.125ZM216.547 741.208H220.507V732.501C220.083 733.484 219.517 734.607 219.093 735.59C218.385 737.416 217.395 739.241 216.547 741.208ZM176.519 548.252C177.367 548.673 178.216 548.954 178.923 549.375C183.025 551.201 187.268 552.605 191.653 553.869V532.945C191.653 531.681 191.794 530.557 191.936 529.574H180.762C179.913 535.894 178.499 542.073 176.519 548.252ZM220.507 639.393V637.989C211.738 630.546 203.251 622.682 195.472 614.396V615.941C197.311 617.767 199.008 619.592 200.847 621.418C207.212 627.737 213.718 633.776 220.507 639.393ZM220.507 676.046V667.901C217.82 666.637 215.132 665.514 212.303 664.531C207.919 677.451 203.958 690.651 201.695 704.133C201.271 706.942 197.028 705.678 197.452 703.01C199.857 689.388 203.675 676.187 208.202 663.267C204.666 662.284 201.13 661.582 197.452 661.301C196.745 664.671 196.038 668.182 195.472 671.553V741.348H197.593C201.978 725.198 207.636 709.47 213.293 694.303C215.557 688.124 218.102 682.085 220.507 676.046ZM229.984 701.746C231.539 698.375 233.237 695.145 234.934 691.915C236.49 688.545 238.187 685.315 240.026 682.085L237.056 679.136C234.793 682.787 232.388 686.579 229.984 690.23V701.746ZM258.696 508.65C257.706 508.229 256.575 507.807 255.584 507.526C252.614 508.228 243.279 509.914 237.904 505.841C232.812 506.543 220.366 509.914 205.231 509.914C205.09 507.948 204.948 505.982 204.807 504.015V501.066C204.948 496.151 205.656 491.376 207.494 486.602C216.971 488.849 230.549 492.079 242.996 495.168V495.028C243.703 495.309 244.411 495.449 245.118 495.73C245.401 495.87 245.825 495.87 246.108 496.011C251.2 497.556 256.009 499.1 259.969 500.505C259.828 497.275 259.969 494.045 260.676 490.674C258.555 490.534 256.575 490.393 254.877 490.393C254.594 487.304 254.17 484.214 253.746 481.125C250.351 458.375 246.249 433.097 228.711 416.104C226.872 414.419 224.892 412.734 222.911 411.329C223.053 410.206 223.477 409.223 223.477 407.959C220.79 405.291 217.961 402.903 214.991 400.656C207.919 395.32 200.139 391.247 191.794 388.439C190.38 387.877 188.824 387.456 187.268 387.034C185.571 390.264 183.732 393.635 182.035 396.865C176.236 398.129 172.276 402.342 169.588 408.24C168.598 409.363 167.749 410.627 167.042 412.032C163.365 419.334 163.506 428.041 163.789 436.327C163.93 440.82 164.213 445.455 164.355 450.089C164.496 452.757 164.638 455.566 164.779 458.375C165.769 475.227 167.467 492.5 171.003 508.369C171.851 508.931 175.953 509.352 181.752 509.633C181.752 510.335 181.752 510.897 181.894 511.599C182.035 515.391 182.035 519.182 181.752 522.974H198.866L245.966 522.834L246.957 518.621H256.716C256.716 517.497 256.716 516.233 256.575 515.11C258.555 514.829 260.393 514.408 262.374 514.127C261.949 512.722 261.666 511.458 261.384 510.054C260.535 509.633 259.686 509.071 258.696 508.65ZM282.317 678.012C282.175 678.434 282.175 678.855 282.034 679.136C297.027 686.438 312.727 692.477 328.851 697.111C328.71 696.69 328.427 696.269 328.285 695.848C312.444 691.073 297.027 685.175 282.317 678.012ZM688.536 661.02H687.688C682.454 661.02 677.362 661.722 672.27 662.986C670.997 680.119 670.29 697.252 671.988 714.385C672.27 717.193 667.886 717.193 667.603 714.385C666.047 697.673 666.613 680.962 667.886 664.25C662.652 666.076 657.702 668.463 653.034 671.412C656.005 699.92 660.107 728.147 666.471 756.094H676.655C675.806 724.356 682.454 692.618 688.536 661.02ZM229.842 722.109C233.237 713.542 236.773 705.116 240.733 696.831C242.289 693.881 243.703 690.932 245.118 688.124C244.411 687.281 243.703 686.438 242.996 685.596C241.016 689.247 239.036 692.898 237.197 696.69C234.651 701.746 232.247 706.801 229.842 711.997V722.109ZM241.865 735.029C240.875 737.697 236.773 736.573 237.621 733.905C240.309 726.322 244.552 719.581 249.644 713.402C249.927 707.925 250.351 702.167 250.634 696.269C249.785 694.865 249.078 693.46 248.088 692.056C241.582 705.116 235.924 718.457 230.691 732.079C230.408 732.641 230.266 733.343 229.984 733.905V741.067H242.006C244.693 734.607 248.654 728.288 248.654 728.288L250.351 728.568L251.2 719.159L250.634 719.019C246.956 723.934 243.986 729.271 241.865 735.029ZM195.189 529.574C195.33 530.557 195.472 531.681 195.472 532.945V554.712C208.202 557.661 221.497 558.082 234.51 556.257C242.148 555.133 249.502 553.308 256.716 550.639C256.857 550.639 256.999 550.499 256.999 550.499C257.14 543.618 257.14 536.596 256.999 529.574H195.189ZM229.984 646.977C237.48 652.734 245.401 658.211 253.321 663.267C253.321 662.846 253.463 662.424 253.463 662.003C245.401 656.947 237.48 651.33 229.984 645.572V646.977Z" fill="#0984E3"/>
</svg>
